<?xml version="1.0" standalone="no"?>
<!DOCTYPE svg PUBLIC "-//W3C//DTD SVG 20010904//EN"
 "http://www.w3.org/TR/2001/REC-SVG-20010904/DTD/svg10.dtd">
<svg version="1.0" xmlns="http://www.w3.org/2000/svg"
 width="512.000000pt" height="512.000000pt" viewBox="0 0 512.000000 512.000000"
 preserveAspectRatio="xMidYMid meet">
<metadata>
Created by potrace 1.14, written by Peter Selinger 2001-2017
</metadata>
<g transform="translate(0.000000,512.000000) scale(0.100000,-0.100000)"
fill="#000000" stroke="none">
<path d="M2220 4549 c-552 -13 -1281 -79 -1433 -130 -306 -101 -575 -367 -662
-653 -26 -86 -65 -323 -90 -546 -49 -446 -43 -1026 15 -1450 21 -153 52 -337
66 -391 70 -281 354 -573 656 -674 231 -77 1368 -157 1988 -140 644 17 1353
75 1538 125 257 70 513 279 636 519 57 112 71 157 100 331 112 656 112 1372 1
2035 -29 171 -44 222 -93 320 -48 97 -84 147 -171 239 -139 145 -314 254 -474
295 -81 21 -428 62 -717 85 -411 33 -906 46 -1360 35z m1379 -1059 c53 -27 96
-77 130 -150 16 -36 147 -357 291 -715 279 -690 290 -727 257 -792 -69 -132
-233 -133 -300 -2 -16 31 -53 118 -82 195 l-54 139 -353 3 -353 2 -49 -132
c-88 -240 -119 -289 -191 -302 -116 -22 -221 83 -196 196 14 60 545 1411 577
1465 63 108 211 151 323 93z m-1727 6 c175 -35 289 -94 408 -215 71 -71 94
-103 132 -181 56 -114 84 -217 98 -368 25 -266 -39 -530 -171 -701 l-41 -54
23 -18 c13 -10 66 -42 117 -71 125 -71 160 -101 168 -145 8 -43 -14 -95 -51
-119 -63 -41 -154 -10 -357 125 l-107 70 -44 -19 c-177 -79 -472 -87 -682 -19
-121 39 -204 89 -295 179 -121 121 -190 266 -226 471 -22 130 -15 360 16 479
83 319 292 523 600 585 89 18 321 18 412 1z"/>
<path d="M3476 3130 c-13 -33 -246 -683 -246 -687 0 -1 115 -3 256 -3 240 0
256 1 249 18 -4 9 -58 157 -120 327 -144 394 -132 363 -139 345z"/>
<path d="M1570 3229 c-25 -5 -77 -25 -117 -44 -120 -59 -200 -168 -245 -334
-30 -109 -30 -342 1 -455 28 -105 77 -189 150 -259 106 -101 242 -143 386
-118 39 7 77 16 85 21 20 12 2 26 -112 85 -114 60 -148 88 -148 127 0 42 17
68 55 84 60 25 160 -13 329 -124 l69 -45 18 24 c37 47 88 165 103 241 21 99
21 294 1 390 -61 291 -300 460 -575 407z"/>
</g>
</svg>
